<svg id="Layer_1" data-name="Layer 1" xmlns="http://www.w3.org/2000/svg" xmlns:xlink="http://www.w3.org/1999/xlink" viewBox="0 0 1200 817.06"><defs><style>.cls-1{fill:#afd6f2;stroke:#150319;}.cls-1,.cls-2,.cls-3,.cls-4,.cls-7,.cls-8{stroke-miterlimit:10;}.cls-2{opacity:0.55;fill:url(#linear-gradient);stroke:url(#linear-gradient-2);}.cls-3{fill:#fff;}.cls-3,.cls-4,.cls-5{stroke:#060e26;}.cls-4,.cls-5{fill:none;stroke-width:1.68px;}.cls-5{stroke-linecap:round;stroke-linejoin:round;}.cls-6,.cls-7{fill:#fed600;}.cls-7,.cls-8{stroke:#073451;}.cls-8{fill:#f05223;}</style><linearGradient id="linear-gradient" x1="618.35" y1="168.75" x2="618.35" y2="748.2" gradientUnits="userSpaceOnUse"><stop offset="0" stop-color="#fff"/><stop offset="1" stop-color="#fff" stop-opacity="0"/></linearGradient><linearGradient id="linear-gradient-2" x1="344.18" y1="458.47" x2="892.52" y2="458.47" xlink:href="#linear-gradient"/></defs><ellipse class="cls-1" cx="619.16" cy="456.92" rx="293.46" ry="299.66" transform="translate(67.72 993.63) rotate(-80.65)"/><path class="cls-2" d="M891.82,453.13,822,452.47h-.69a399.09,399.09,0,0,0-12.72-93.6c-.91-3.41-2-7.05-3.19-11.06l62.74-.64a2.28,2.28,0,0,0,2.21-2.33l-.21-2.32-64.42-.67h-2.2a322.71,322.71,0,0,0-34.42-74.2,264.1,264.1,0,0,0-22.56-30.41l20.6-.25c9.54-.12,19.08-.24,28.65-.43a2.31,2.31,0,0,0,2.13-2.33l-.2-2.3-2,0c-9.47-.19-18.93-.31-28.4-.44l-26.2-.29a215.34,215.34,0,0,0-39.34-34,175.59,175.59,0,0,0-43.37-20.9,153,153,0,0,0-94.32,0A175.17,175.17,0,0,0,520.69,197a215.72,215.72,0,0,0-39.58,34.18l-10.71.13c-9.77.11-19.55.23-29.34.41a2.36,2.36,0,0,0-2.25,2.39l.06,1.11,1.37,1.37h.83c9.91.19,19.83.3,29.74.42l5.06.06a267,267,0,0,0-22.59,30.38,322.94,322.94,0,0,0-34.56,74.4l-50.08.48a2.45,2.45,0,0,0,0,4.89l48.21.46c-1.22,4-2.27,7.61-3.2,11a382.74,382.74,0,0,0-9.6,49.32,415.82,415.82,0,0,0-3.15,44.43l-54,.47a2.45,2.45,0,0,0,0,4.89l53.85.47A416.63,416.63,0,0,0,404,508.58a380.41,380.41,0,0,0,9.57,49.35c.47,1.76,1,3.51,1.49,5.25l-46.42.45a2.44,2.44,0,0,0,0,4.88l48.14.46a325.32,325.32,0,0,0,36.35,80.29,271.23,271.23,0,0,0,17.37,24.18H450a3.26,3.26,0,0,0,0,6.5h25.83a219.41,219.41,0,0,0,44.7,39.9A174.23,174.23,0,0,0,564,740.79a155.62,155.62,0,0,0,47.21,7.39,31.92,31.92,0,0,0,3.43-.12l1.53-.11a24.27,24.27,0,0,0,3.61.22,20.38,20.38,0,0,0,4.55-.61,157,157,0,0,0,34.15-6.82,174.38,174.38,0,0,0,43.42-21,219.12,219.12,0,0,0,44.51-39.81h58.2a3.26,3.26,0,0,0,0-6.5H751.79a268.65,268.65,0,0,0,17.42-24.3,325.06,325.06,0,0,0,36.2-80.09l62.71-.65a2.28,2.28,0,0,0,2.21-2.33l-.21-2.31-63-.65c.51-1.76,1-3.51,1.49-5.28a400,400,0,0,0,12.76-99.4l68.44-.65h0a2.27,2.27,0,0,0,2.13-2.33ZM573.43,673.44c-2.15-7.27-4.14-14.82-5.94-22.47-2.79-11.92-5.22-24.25-7.44-37.69-2.24-13.67-4.15-28-5.81-43.67l64.17.11,65.67-.16c-1.64,15.37-3.49,29.3-5.65,42.53-2.2,13.49-4.61,25.83-7.35,37.71-1.91,8.2-4,16.14-6.21,23.64ZM548.78,459l69.63.14,71.43-.16c0,26-.91,51.77-2.7,76.56-.6,8.38-1.37,17.25-2.34,27.08l-66.4-.16-62.43.1h-2.45c-.93-9.47-1.67-17.94-2.22-25.81-1.75-25.05-2.6-51-2.52-77.17Zm0-7c.08-37.61,1.57-71.53,4.57-103.57l65,.1,65.36-.15c1.29,11.13,2.36,22.19,3.19,32.89,1.78,22.71,2.74,46.5,2.84,70.74l-71.4-.15Zm69.6-110.77-62.43.1H554c1.23-12.16,2.7-24.16,4.38-35.71,2-13.56,4.18-25.94,6.72-37.86,2.29-10.75,4.77-20.56,7.55-30l45.72.1,42.57-.11c3.12,9.25,5.93,18.89,8.57,29.42,3,11.88,5.56,24.18,7.94,37.58,2.06,11.64,3.9,23.93,5.47,36.59ZM697.83,452c-.21-24.47-1.28-48.49-3.19-71.46-.88-10.39-2-21.21-3.39-32.21l105.68-.44c1.51,5,2.71,9.23,3.77,13.31a389,389,0,0,1,12,91.24ZM642.35,196.65c5.82,9.09,10.95,19.88,16.15,33.94l0,.06-40.12-.1-43.55.1c4.77-14.63,9.36-25.27,14.86-34.49a58.79,58.79,0,0,1,11.21-14.08,27.4,27.4,0,0,1,7.09-4.62,18.06,18.06,0,0,1,7.87-1.58,19.61,19.61,0,0,1,7.84,2,31.82,31.82,0,0,1,7.09,4.82A66.53,66.53,0,0,1,642.35,196.65ZM537.16,348.34h8.67c-1.16,11.2-2.14,22.42-2.92,33.41-.89,12.69-1.59,25.76-2.07,38.87-.39,11.59-.61,21.87-.66,31.32l-125.35.46-4.63,0a404.79,404.79,0,0,1,2.92-43.08,379.79,379.79,0,0,1,9-48.11c1.05-4.07,2.26-8.37,3.79-13.45l67.62.39C508.08,348.3,522.62,348.32,537.16,348.34Zm-124,159a406.15,406.15,0,0,1-3.05-48.86l130,.5v.63c.14,26.44,1.21,52.62,3.18,77.81.61,7.66,1.38,15.91,2.36,25.16h-6.82q-22.67,0-45.31.15l-62.44.34-6.78.07c-.74-2.56-1.45-5.12-2.12-7.7A377.17,377.17,0,0,1,413.16,507.3Zm281.91,28.85c1.84-25,2.79-50.94,2.83-77.23l114.85-.44a390.33,390.33,0,0,1-12.12,97q-1,3.79-2.09,7.57l-105.9-.45C693.66,553,694.45,544.29,695.07,536.15Zm-4.69-194.8c-1.74-13.09-3.77-25.86-6-38-2.57-13.59-5.35-26-8.49-38-2.59-9.83-5.31-18.9-8.31-27.63l10.81,0c9.57,0,19.14,0,28.72-.15l30.52-.25a255.61,255.61,0,0,1,25.59,34.48,314.77,314.77,0,0,1,31.86,70Zm16.69-110.5c-9.58-.1-19.16-.12-28.73-.14l-13.3,0-.06-.17c-.27-.76-.54-1.51-.83-2.27-5.53-14.45-11-25.56-17.17-35a71.48,71.48,0,0,0-12.74-15c-.83-.71-1.67-1.37-2.5-2a149.55,149.55,0,0,1,25,5.71,168.21,168.21,0,0,1,41.82,20.47A202.57,202.57,0,0,1,732,231.06ZM600.7,175.18a37.24,37.24,0,0,0-3.21,2.47A64.08,64.08,0,0,0,585,192.92c-5.88,9.59-10.78,20.59-15.9,35.66-.23.7-.45,1.39-.66,2.09H562c-10.76,0-21.52,0-32.28.15l-39,.29A202.12,202.12,0,0,1,524,202.6a167.77,167.77,0,0,1,41.78-20.51A150.51,150.51,0,0,1,600.7,175.18Zm-71,62.4c10.46.1,20.91.12,31.37.13l5.09,0c-2.7,8.93-5.14,18.25-7.43,28.41-2.71,12-5.08,24.53-7.25,38.26-1.88,11.89-3.54,24.29-4.95,36.9h-9.46c-14.53,0-29.05,0-43.58.14l-62.44.34-3.32,0a314.52,314.52,0,0,1,31.75-69.92h0a257.1,257.1,0,0,1,25.69-34.65ZM493.53,569.44c14.58.11,29.16.12,43.74.14h9.16c1.84,16.28,3.92,31,6.34,45.07,2.36,13.6,4.93,26.08,7.86,38.15,1.7,7,3.58,13.92,5.57,20.63h-86a261.79,261.79,0,0,1-20.6-28.75A316.44,316.44,0,0,1,426,569.06Zm74.67,110.5c1.09,3.44,2.22,6.86,3.43,10.26,5.28,14.66,10.54,25.91,16.58,35.4A66.62,66.62,0,0,0,601,740.77l.57.47a149.25,149.25,0,0,1-35.69-6.94,168.21,168.21,0,0,1-41.75-20.43,203,203,0,0,1-35.63-31c-.9-1-1.78-2-2.65-3Zm25.36,41.86c-5.67-9.08-10.63-19.92-15.59-34.11-.9-2.56-1.75-5.15-2.57-7.75h87.5q-1,3.33-2.17,6.62c-4.92,14.23-9.81,25.11-15.37,34.24a63.88,63.88,0,0,1-11.17,14.06,30.6,30.6,0,0,1-6.91,4.81,20.78,20.78,0,0,1-3.73,1.4c-2.06.18-4.14.26-6.21.34l-.57.06A19.23,19.23,0,0,1,612,740.1a27.33,27.33,0,0,1-7-4.52A60.8,60.8,0,0,1,593.56,721.8Zm46,16.93a73,73,0,0,0,11.19-14.18c5.92-9.54,11.12-20.82,16.33-35.5,1.07-3,2.07-6.06,3-9.11H736.9c-.9,1-1.82,2.07-2.75,3.08A204.23,204.23,0,0,1,698.46,714a168.49,168.49,0,0,1-41.79,20.39A147.08,147.08,0,0,1,639.59,738.73Zm32.54-65.29c2.1-7.06,4.08-14.38,5.87-21.82,2.89-12,5.43-24.51,7.78-38.16s4.34-28.17,6.11-43.92l104.9-.44a316.81,316.81,0,0,1-33.73,75.71,261,261,0,0,1-20.55,28.63Z"/><path class="cls-3" d="M979.88,313l-434.33,2a42.09,42.09,0,0,1-42.08-42.09h0a42.08,42.08,0,0,1,42.08-42.09l434.33-2A42.08,42.08,0,0,1,1022,270.89h0A42.08,42.08,0,0,1,979.88,313Z"/><circle class="cls-4" cx="969.24" cy="268.93" r="17.94"/><line class="cls-5" x1="980.91" y1="282.56" x2="991.88" y2="293.53"/><polygon class="cls-6" points="190.57 488.78 176.88 488.78 176.88 475.09 172 475.09 172 488.78 158.31 488.78 158.31 493.65 172 493.65 172 507.35 176.88 507.35 176.88 493.65 190.57 493.65 190.57 488.78"/><polygon class="cls-6" points="47.46 324.71 33.76 324.71 33.76 311.02 28.89 311.02 28.89 324.71 15.19 324.71 15.19 329.59 28.89 329.59 28.89 343.28 33.76 343.28 33.76 329.59 47.46 329.59 47.46 324.71"/><polygon class="cls-6" points="1159.65 456.5 1145.96 456.5 1145.96 442.8 1141.08 442.8 1141.08 456.5 1127.39 456.5 1127.39 461.37 1141.08 461.37 1141.08 475.07 1145.96 475.07 1145.96 461.37 1159.65 461.37 1159.65 456.5"/><polygon class="cls-6" points="853.45 746.06 841.45 746.06 841.45 734.06 837.18 734.06 837.18 746.06 825.18 746.06 825.18 750.33 837.18 750.33 837.18 762.33 841.45 762.33 841.45 750.33 853.45 750.33 853.45 746.06"/><polygon class="cls-6" points="388.82 715.56 376.82 715.56 376.82 703.56 372.56 703.56 372.56 715.56 360.56 715.56 360.56 719.83 372.56 719.83 372.56 731.82 376.82 731.82 376.82 719.83 388.82 719.83 388.82 715.56"/><polygon class="cls-6" points="230.56 335.03 222.68 335.03 222.68 327.15 219.87 327.15 219.87 335.03 211.99 335.03 211.99 337.84 219.87 337.84 219.87 345.72 222.68 345.72 222.68 337.84 230.56 337.84 230.56 335.03"/><polygon class="cls-6" points="995.04 601.76 983.04 601.76 983.04 589.76 978.77 589.76 978.77 601.76 966.78 601.76 966.78 606.03 978.77 606.03 978.77 618.03 983.04 618.03 983.04 606.03 995.04 606.03 995.04 601.76"/><polygon class="cls-6" points="360.74 173.89 347.05 173.89 347.05 160.19 342.17 160.19 342.17 173.89 328.48 173.89 328.48 178.76 342.17 178.76 342.17 192.46 347.05 192.46 347.05 178.76 360.74 178.76 360.74 173.89"/><polygon class="cls-6" points="959.43 383.46 952.53 383.46 952.53 376.56 950.07 376.56 950.07 383.46 943.17 383.46 943.17 385.92 950.07 385.92 950.07 392.83 952.53 392.83 952.53 385.92 959.43 385.92 959.43 383.46"/><polygon class="cls-6" points="871.58 25.34 857.89 25.34 857.89 11.64 853.01 11.64 853.01 25.34 839.32 25.34 839.32 30.21 853.01 30.21 853.01 43.91 857.89 43.91 857.89 30.21 871.58 30.21 871.58 25.34"/><path class="cls-7" d="M237.72,635c-2.25,3.45-2.28,5.45-2.17,5.8s1.89,1.29,6,1.29H447.81c4.12,0,5.81-1.07,6-1.36.08-.28,0-2.28-2.21-5.73L351.19,481c-2-3.1-4.45-4.94-6.51-4.94s-4.48,1.84-6.5,4.94Z"/><path class="cls-8" d="M447.81,663.85H241.56c-11.63,0-20.81-4.65-25.2-12.75s-3.26-18.34,3.1-28.07h0l100.45-153.9c6.15-9.43,15.18-14.83,24.77-14.83s18.62,5.4,24.77,14.82L469.91,623c6.35,9.73,7.48,20,3.1,28.07S459.43,663.85,447.81,663.85ZM237.72,635c-2.25,3.45-2.28,5.45-2.17,5.8s1.89,1.29,6,1.29H447.81c4.12,0,5.81-1.07,6-1.36.08-.28,0-2.28-2.21-5.73L351.19,481c-2-3.1-4.45-4.94-6.51-4.94s-4.48,1.84-6.5,4.94Z"/><path class="cls-8" d="M338.36,622.11a8.67,8.67,0,0,1,6.17-14.84,8.67,8.67,0,0,1,6.25,2.5,8.69,8.69,0,0,1,0,12.34,8.63,8.63,0,0,1-6.25,2.5A8.37,8.37,0,0,1,338.36,622.11Zm-5.14-102.4h22.92L351.88,593h-14.4Z"/></svg>